<mxfile host="Electron" modified="2023-05-01T17:05:07.077Z" agent="Mozilla/5.0 (Windows NT 10.0; Win64; x64) AppleWebKit/537.36 (KHTML, like Gecko) draw.io/21.2.1 Chrome/112.0.5615.87 Electron/24.1.2 Safari/537.36" etag="AnC9n-A2n4o44M7LbDyM" version="21.2.1" type="device">
  <diagram name="Page-1" id="40RKDE1S9QtMaZkaLiVW">
    <mxGraphModel dx="1843" dy="911" grid="1" gridSize="10" guides="1" tooltips="1" connect="1" arrows="1" fold="1" page="1" pageScale="1" pageWidth="1100" pageHeight="850" math="0" shadow="0">
      <root>
        <mxCell id="0" />
        <mxCell id="1" parent="0" />
        <mxCell id="wImbaT4fMVseAlvRaWkG-1" value="Air_Line" style="whiteSpace=wrap;html=1;align=center;" vertex="1" parent="1">
          <mxGeometry x="240" y="150" width="100" height="40" as="geometry" />
        </mxCell>
        <mxCell id="wImbaT4fMVseAlvRaWkG-2" value="ID" style="ellipse;whiteSpace=wrap;html=1;align=center;fontStyle=4;" vertex="1" parent="1">
          <mxGeometry x="110" y="80" width="90" height="50" as="geometry" />
        </mxCell>
        <mxCell id="wImbaT4fMVseAlvRaWkG-3" value="Name" style="ellipse;whiteSpace=wrap;html=1;align=center;" vertex="1" parent="1">
          <mxGeometry x="60" y="150" width="100" height="40" as="geometry" />
        </mxCell>
        <mxCell id="wImbaT4fMVseAlvRaWkG-4" value="Contact_Person" style="ellipse;whiteSpace=wrap;html=1;align=center;" vertex="1" parent="1">
          <mxGeometry x="190" y="50" width="100" height="40" as="geometry" />
        </mxCell>
        <mxCell id="wImbaT4fMVseAlvRaWkG-10" value="CP_Phone" style="ellipse;shape=doubleEllipse;margin=3;whiteSpace=wrap;html=1;align=center;" vertex="1" parent="1">
          <mxGeometry x="300" y="70" width="100" height="40" as="geometry" />
        </mxCell>
        <mxCell id="wImbaT4fMVseAlvRaWkG-12" value="" style="endArrow=none;html=1;rounded=0;exitX=0;exitY=0.5;exitDx=0;exitDy=0;entryX=1;entryY=0.5;entryDx=0;entryDy=0;" edge="1" parent="1" source="wImbaT4fMVseAlvRaWkG-1" target="wImbaT4fMVseAlvRaWkG-3">
          <mxGeometry relative="1" as="geometry">
            <mxPoint x="460" y="360" as="sourcePoint" />
            <mxPoint x="620" y="360" as="targetPoint" />
          </mxGeometry>
        </mxCell>
        <mxCell id="wImbaT4fMVseAlvRaWkG-13" value="" style="endArrow=none;html=1;rounded=0;exitX=0;exitY=0;exitDx=0;exitDy=0;entryX=1;entryY=1;entryDx=0;entryDy=0;" edge="1" parent="1" source="wImbaT4fMVseAlvRaWkG-1" target="wImbaT4fMVseAlvRaWkG-2">
          <mxGeometry relative="1" as="geometry">
            <mxPoint x="180" y="180" as="sourcePoint" />
            <mxPoint x="130" y="140" as="targetPoint" />
          </mxGeometry>
        </mxCell>
        <mxCell id="wImbaT4fMVseAlvRaWkG-14" value="" style="endArrow=none;html=1;rounded=0;exitX=0.5;exitY=0;exitDx=0;exitDy=0;entryX=0.5;entryY=1;entryDx=0;entryDy=0;" edge="1" parent="1" source="wImbaT4fMVseAlvRaWkG-1" target="wImbaT4fMVseAlvRaWkG-4">
          <mxGeometry relative="1" as="geometry">
            <mxPoint x="180" y="160" as="sourcePoint" />
            <mxPoint x="155" y="84" as="targetPoint" />
          </mxGeometry>
        </mxCell>
        <mxCell id="wImbaT4fMVseAlvRaWkG-15" value="" style="endArrow=none;html=1;rounded=0;exitX=1;exitY=0;exitDx=0;exitDy=0;entryX=0.5;entryY=1;entryDx=0;entryDy=0;" edge="1" parent="1" source="wImbaT4fMVseAlvRaWkG-1" target="wImbaT4fMVseAlvRaWkG-10">
          <mxGeometry relative="1" as="geometry">
            <mxPoint x="230" y="160" as="sourcePoint" />
            <mxPoint x="230" y="80" as="targetPoint" />
          </mxGeometry>
        </mxCell>
        <mxCell id="wImbaT4fMVseAlvRaWkG-16" value="Sell/Buy" style="shape=rhombus;perimeter=rhombusPerimeter;whiteSpace=wrap;html=1;align=center;" vertex="1" parent="1">
          <mxGeometry x="130" y="240" width="90" height="40" as="geometry" />
        </mxCell>
        <mxCell id="wImbaT4fMVseAlvRaWkG-17" value="Transaction" style="whiteSpace=wrap;html=1;align=center;" vertex="1" parent="1">
          <mxGeometry x="90" y="330" width="100" height="40" as="geometry" />
        </mxCell>
        <mxCell id="wImbaT4fMVseAlvRaWkG-18" value="ID" style="ellipse;whiteSpace=wrap;html=1;align=center;fontStyle=4;" vertex="1" parent="1">
          <mxGeometry x="5" y="380" width="100" height="40" as="geometry" />
        </mxCell>
        <mxCell id="wImbaT4fMVseAlvRaWkG-19" value="Description" style="ellipse;whiteSpace=wrap;html=1;align=center;" vertex="1" parent="1">
          <mxGeometry x="70" y="440" width="100" height="40" as="geometry" />
        </mxCell>
        <mxCell id="wImbaT4fMVseAlvRaWkG-20" value="Date" style="ellipse;whiteSpace=wrap;html=1;align=center;" vertex="1" parent="1">
          <mxGeometry x="170" y="405" width="100" height="40" as="geometry" />
        </mxCell>
        <mxCell id="wImbaT4fMVseAlvRaWkG-21" value="Amount" style="ellipse;whiteSpace=wrap;html=1;align=center;" vertex="1" parent="1">
          <mxGeometry x="10" y="280" width="100" height="40" as="geometry" />
        </mxCell>
        <mxCell id="wImbaT4fMVseAlvRaWkG-22" value="" style="endArrow=none;html=1;rounded=0;exitX=0.5;exitY=1;exitDx=0;exitDy=0;" edge="1" parent="1" source="wImbaT4fMVseAlvRaWkG-21" target="wImbaT4fMVseAlvRaWkG-17">
          <mxGeometry relative="1" as="geometry">
            <mxPoint x="50" y="340" as="sourcePoint" />
            <mxPoint x="210" y="340" as="targetPoint" />
          </mxGeometry>
        </mxCell>
        <mxCell id="wImbaT4fMVseAlvRaWkG-23" value="" style="endArrow=none;html=1;rounded=0;exitX=0.5;exitY=0;exitDx=0;exitDy=0;entryX=0;entryY=1;entryDx=0;entryDy=0;" edge="1" parent="1" source="wImbaT4fMVseAlvRaWkG-18" target="wImbaT4fMVseAlvRaWkG-17">
          <mxGeometry relative="1" as="geometry">
            <mxPoint x="70" y="330" as="sourcePoint" />
            <mxPoint x="100" y="341" as="targetPoint" />
          </mxGeometry>
        </mxCell>
        <mxCell id="wImbaT4fMVseAlvRaWkG-24" value="" style="endArrow=none;html=1;rounded=0;exitX=0.5;exitY=0;exitDx=0;exitDy=0;entryX=0.5;entryY=1;entryDx=0;entryDy=0;" edge="1" parent="1" source="wImbaT4fMVseAlvRaWkG-19" target="wImbaT4fMVseAlvRaWkG-17">
          <mxGeometry relative="1" as="geometry">
            <mxPoint x="70" y="415" as="sourcePoint" />
            <mxPoint x="100" y="380" as="targetPoint" />
          </mxGeometry>
        </mxCell>
        <mxCell id="wImbaT4fMVseAlvRaWkG-25" value="" style="endArrow=none;html=1;rounded=0;exitX=0;exitY=0;exitDx=0;exitDy=0;entryX=1;entryY=1;entryDx=0;entryDy=0;" edge="1" parent="1" source="wImbaT4fMVseAlvRaWkG-20" target="wImbaT4fMVseAlvRaWkG-17">
          <mxGeometry relative="1" as="geometry">
            <mxPoint x="80" y="425" as="sourcePoint" />
            <mxPoint x="110" y="390" as="targetPoint" />
          </mxGeometry>
        </mxCell>
        <mxCell id="wImbaT4fMVseAlvRaWkG-26" value="" style="endArrow=none;html=1;rounded=0;exitX=0.25;exitY=1;exitDx=0;exitDy=0;entryX=0.5;entryY=0;entryDx=0;entryDy=0;" edge="1" parent="1" source="wImbaT4fMVseAlvRaWkG-1" target="wImbaT4fMVseAlvRaWkG-16">
          <mxGeometry relative="1" as="geometry">
            <mxPoint x="50" y="340" as="sourcePoint" />
            <mxPoint x="210" y="340" as="targetPoint" />
          </mxGeometry>
        </mxCell>
        <mxCell id="wImbaT4fMVseAlvRaWkG-27" value="1" style="resizable=0;html=1;whiteSpace=wrap;align=right;verticalAlign=bottom;" connectable="0" vertex="1" parent="wImbaT4fMVseAlvRaWkG-26">
          <mxGeometry x="1" relative="1" as="geometry" />
        </mxCell>
        <mxCell id="wImbaT4fMVseAlvRaWkG-28" value="" style="shape=link;html=1;rounded=0;exitX=0.5;exitY=0;exitDx=0;exitDy=0;entryX=0.5;entryY=1;entryDx=0;entryDy=0;" edge="1" parent="1" source="wImbaT4fMVseAlvRaWkG-17" target="wImbaT4fMVseAlvRaWkG-16">
          <mxGeometry relative="1" as="geometry">
            <mxPoint x="50" y="340" as="sourcePoint" />
            <mxPoint x="210" y="340" as="targetPoint" />
          </mxGeometry>
        </mxCell>
        <mxCell id="wImbaT4fMVseAlvRaWkG-29" value="N" style="resizable=0;html=1;whiteSpace=wrap;align=right;verticalAlign=bottom;" connectable="0" vertex="1" parent="wImbaT4fMVseAlvRaWkG-28">
          <mxGeometry x="1" relative="1" as="geometry">
            <mxPoint x="-15" y="10" as="offset" />
          </mxGeometry>
        </mxCell>
        <mxCell id="wImbaT4fMVseAlvRaWkG-30" value="Has" style="shape=rhombus;perimeter=rhombusPerimeter;whiteSpace=wrap;html=1;align=center;" vertex="1" parent="1">
          <mxGeometry x="260" y="330" width="120" height="60" as="geometry" />
        </mxCell>
        <mxCell id="wImbaT4fMVseAlvRaWkG-31" value="" style="endArrow=none;html=1;rounded=0;exitX=0.5;exitY=1;exitDx=0;exitDy=0;entryX=0.5;entryY=0;entryDx=0;entryDy=0;" edge="1" parent="1" source="wImbaT4fMVseAlvRaWkG-1" target="wImbaT4fMVseAlvRaWkG-30">
          <mxGeometry relative="1" as="geometry">
            <mxPoint x="420" y="240" as="sourcePoint" />
            <mxPoint x="580" y="240" as="targetPoint" />
          </mxGeometry>
        </mxCell>
        <mxCell id="wImbaT4fMVseAlvRaWkG-32" value="1" style="resizable=0;html=1;whiteSpace=wrap;align=right;verticalAlign=bottom;" connectable="0" vertex="1" parent="wImbaT4fMVseAlvRaWkG-31">
          <mxGeometry x="1" relative="1" as="geometry">
            <mxPoint x="10" y="-9" as="offset" />
          </mxGeometry>
        </mxCell>
        <mxCell id="wImbaT4fMVseAlvRaWkG-33" value="Employee" style="whiteSpace=wrap;html=1;align=center;" vertex="1" parent="1">
          <mxGeometry x="240" y="510" width="100" height="40" as="geometry" />
        </mxCell>
        <mxCell id="wImbaT4fMVseAlvRaWkG-34" value="" style="endArrow=none;html=1;rounded=0;exitX=0.25;exitY=0;exitDx=0;exitDy=0;entryX=0.5;entryY=1;entryDx=0;entryDy=0;" edge="1" parent="1" source="wImbaT4fMVseAlvRaWkG-33" target="wImbaT4fMVseAlvRaWkG-30">
          <mxGeometry relative="1" as="geometry">
            <mxPoint x="420" y="240" as="sourcePoint" />
            <mxPoint x="580" y="240" as="targetPoint" />
          </mxGeometry>
        </mxCell>
        <mxCell id="wImbaT4fMVseAlvRaWkG-35" value="N" style="resizable=0;html=1;whiteSpace=wrap;align=right;verticalAlign=bottom;" connectable="0" vertex="1" parent="wImbaT4fMVseAlvRaWkG-34">
          <mxGeometry x="1" relative="1" as="geometry">
            <mxPoint x="-10" y="21" as="offset" />
          </mxGeometry>
        </mxCell>
        <mxCell id="wImbaT4fMVseAlvRaWkG-36" value="ID" style="ellipse;whiteSpace=wrap;html=1;align=center;fontStyle=4;" vertex="1" parent="1">
          <mxGeometry x="60" y="540" width="100" height="40" as="geometry" />
        </mxCell>
        <mxCell id="wImbaT4fMVseAlvRaWkG-37" value="Address" style="ellipse;whiteSpace=wrap;html=1;align=center;" vertex="1" parent="1">
          <mxGeometry x="210" y="660" width="100" height="40" as="geometry" />
        </mxCell>
        <mxCell id="wImbaT4fMVseAlvRaWkG-40" value="Gender" style="ellipse;whiteSpace=wrap;html=1;align=center;" vertex="1" parent="1">
          <mxGeometry x="390" y="510" width="100" height="40" as="geometry" />
        </mxCell>
        <mxCell id="wImbaT4fMVseAlvRaWkG-41" value="BD" style="ellipse;whiteSpace=wrap;html=1;align=center;" vertex="1" parent="1">
          <mxGeometry x="340" y="610" width="100" height="40" as="geometry" />
        </mxCell>
        <mxCell id="wImbaT4fMVseAlvRaWkG-42" value="Position" style="ellipse;whiteSpace=wrap;html=1;align=center;" vertex="1" parent="1">
          <mxGeometry x="380" y="560" width="100" height="40" as="geometry" />
        </mxCell>
        <mxCell id="wImbaT4fMVseAlvRaWkG-44" value="Name" style="ellipse;whiteSpace=wrap;html=1;align=center;" vertex="1" parent="1">
          <mxGeometry x="80" y="610" width="100" height="40" as="geometry" />
        </mxCell>
        <mxCell id="wImbaT4fMVseAlvRaWkG-45" value="Qualifications" style="ellipse;shape=doubleEllipse;margin=3;whiteSpace=wrap;html=1;align=center;" vertex="1" parent="1">
          <mxGeometry x="100" y="680" width="100" height="40" as="geometry" />
        </mxCell>
        <mxCell id="wImbaT4fMVseAlvRaWkG-46" value="" style="endArrow=none;html=1;rounded=0;exitX=0;exitY=1;exitDx=0;exitDy=0;entryX=0.5;entryY=0;entryDx=0;entryDy=0;" edge="1" parent="1" source="wImbaT4fMVseAlvRaWkG-33" target="wImbaT4fMVseAlvRaWkG-36">
          <mxGeometry relative="1" as="geometry">
            <mxPoint x="410" y="410" as="sourcePoint" />
            <mxPoint x="570" y="410" as="targetPoint" />
          </mxGeometry>
        </mxCell>
        <mxCell id="wImbaT4fMVseAlvRaWkG-47" value="" style="endArrow=none;html=1;rounded=0;exitX=0.25;exitY=1;exitDx=0;exitDy=0;entryX=0.5;entryY=0;entryDx=0;entryDy=0;" edge="1" parent="1" source="wImbaT4fMVseAlvRaWkG-33" target="wImbaT4fMVseAlvRaWkG-44">
          <mxGeometry relative="1" as="geometry">
            <mxPoint x="380" y="435" as="sourcePoint" />
            <mxPoint x="320" y="455" as="targetPoint" />
          </mxGeometry>
        </mxCell>
        <mxCell id="wImbaT4fMVseAlvRaWkG-48" value="" style="endArrow=none;html=1;rounded=0;exitX=0.5;exitY=1;exitDx=0;exitDy=0;entryX=0.5;entryY=0;entryDx=0;entryDy=0;" edge="1" parent="1" source="wImbaT4fMVseAlvRaWkG-33" target="wImbaT4fMVseAlvRaWkG-45">
          <mxGeometry relative="1" as="geometry">
            <mxPoint x="405" y="435" as="sourcePoint" />
            <mxPoint x="340" y="510" as="targetPoint" />
          </mxGeometry>
        </mxCell>
        <mxCell id="wImbaT4fMVseAlvRaWkG-49" value="" style="endArrow=none;html=1;rounded=0;exitX=0.5;exitY=1;exitDx=0;exitDy=0;" edge="1" parent="1" source="wImbaT4fMVseAlvRaWkG-33" target="wImbaT4fMVseAlvRaWkG-37">
          <mxGeometry relative="1" as="geometry">
            <mxPoint x="330" y="530" as="sourcePoint" />
            <mxPoint x="360" y="590" as="targetPoint" />
          </mxGeometry>
        </mxCell>
        <mxCell id="wImbaT4fMVseAlvRaWkG-50" value="" style="endArrow=none;html=1;rounded=0;exitX=0.5;exitY=1;exitDx=0;exitDy=0;entryX=0;entryY=0;entryDx=0;entryDy=0;" edge="1" parent="1" source="wImbaT4fMVseAlvRaWkG-33" target="wImbaT4fMVseAlvRaWkG-41">
          <mxGeometry relative="1" as="geometry">
            <mxPoint x="440" y="440" as="sourcePoint" />
            <mxPoint x="448" y="535" as="targetPoint" />
          </mxGeometry>
        </mxCell>
        <mxCell id="wImbaT4fMVseAlvRaWkG-51" value="" style="endArrow=none;html=1;rounded=0;exitX=1;exitY=0.75;exitDx=0;exitDy=0;entryX=0;entryY=0.5;entryDx=0;entryDy=0;" edge="1" parent="1" source="wImbaT4fMVseAlvRaWkG-33" target="wImbaT4fMVseAlvRaWkG-40">
          <mxGeometry relative="1" as="geometry">
            <mxPoint x="468" y="435" as="sourcePoint" />
            <mxPoint x="515" y="501" as="targetPoint" />
          </mxGeometry>
        </mxCell>
        <mxCell id="wImbaT4fMVseAlvRaWkG-52" value="" style="endArrow=none;html=1;rounded=0;exitX=0.75;exitY=1;exitDx=0;exitDy=0;entryX=0;entryY=0.5;entryDx=0;entryDy=0;" edge="1" parent="1" source="wImbaT4fMVseAlvRaWkG-33" target="wImbaT4fMVseAlvRaWkG-42">
          <mxGeometry relative="1" as="geometry">
            <mxPoint x="480" y="425" as="sourcePoint" />
            <mxPoint x="510" y="415" as="targetPoint" />
          </mxGeometry>
        </mxCell>
        <mxCell id="wImbaT4fMVseAlvRaWkG-53" value="Day" style="ellipse;whiteSpace=wrap;html=1;align=center;" vertex="1" parent="1">
          <mxGeometry x="320" y="670" width="80" height="30" as="geometry" />
        </mxCell>
        <mxCell id="wImbaT4fMVseAlvRaWkG-54" value="Month" style="ellipse;whiteSpace=wrap;html=1;align=center;" vertex="1" parent="1">
          <mxGeometry x="410" y="670" width="70" height="30" as="geometry" />
        </mxCell>
        <mxCell id="wImbaT4fMVseAlvRaWkG-55" value="Year" style="ellipse;whiteSpace=wrap;html=1;align=center;" vertex="1" parent="1">
          <mxGeometry x="470" y="650" width="60" height="40" as="geometry" />
        </mxCell>
        <mxCell id="wImbaT4fMVseAlvRaWkG-56" value="" style="endArrow=none;html=1;rounded=0;entryX=0;entryY=1;entryDx=0;entryDy=0;" edge="1" parent="1" source="wImbaT4fMVseAlvRaWkG-53" target="wImbaT4fMVseAlvRaWkG-41">
          <mxGeometry relative="1" as="geometry">
            <mxPoint x="410" y="410" as="sourcePoint" />
            <mxPoint x="570" y="410" as="targetPoint" />
          </mxGeometry>
        </mxCell>
        <mxCell id="wImbaT4fMVseAlvRaWkG-57" value="" style="endArrow=none;html=1;rounded=0;entryX=0.5;entryY=1;entryDx=0;entryDy=0;exitX=0.185;exitY=-0.014;exitDx=0;exitDy=0;exitPerimeter=0;" edge="1" parent="1" source="wImbaT4fMVseAlvRaWkG-54" target="wImbaT4fMVseAlvRaWkG-41">
          <mxGeometry relative="1" as="geometry">
            <mxPoint x="557" y="590" as="sourcePoint" />
            <mxPoint x="550" y="535" as="targetPoint" />
          </mxGeometry>
        </mxCell>
        <mxCell id="wImbaT4fMVseAlvRaWkG-58" value="" style="endArrow=none;html=1;rounded=0;entryX=1;entryY=1;entryDx=0;entryDy=0;exitX=0;exitY=0.5;exitDx=0;exitDy=0;" edge="1" parent="1" source="wImbaT4fMVseAlvRaWkG-55" target="wImbaT4fMVseAlvRaWkG-41">
          <mxGeometry relative="1" as="geometry">
            <mxPoint x="649" y="599" as="sourcePoint" />
            <mxPoint x="585" y="529" as="targetPoint" />
          </mxGeometry>
        </mxCell>
        <mxCell id="wImbaT4fMVseAlvRaWkG-59" value="Air_craft" style="whiteSpace=wrap;html=1;align=center;" vertex="1" parent="1">
          <mxGeometry x="600" y="150" width="100" height="40" as="geometry" />
        </mxCell>
        <mxCell id="wImbaT4fMVseAlvRaWkG-60" value="ID" style="ellipse;whiteSpace=wrap;html=1;align=center;fontStyle=4;" vertex="1" parent="1">
          <mxGeometry x="460" y="80" width="100" height="40" as="geometry" />
        </mxCell>
        <mxCell id="wImbaT4fMVseAlvRaWkG-61" value="Capacity" style="ellipse;whiteSpace=wrap;html=1;align=center;" vertex="1" parent="1">
          <mxGeometry x="570" y="70" width="100" height="40" as="geometry" />
        </mxCell>
        <mxCell id="wImbaT4fMVseAlvRaWkG-62" value="Model" style="ellipse;whiteSpace=wrap;html=1;align=center;" vertex="1" parent="1">
          <mxGeometry x="680" y="80" width="100" height="40" as="geometry" />
        </mxCell>
        <mxCell id="wImbaT4fMVseAlvRaWkG-64" value="Has" style="shape=rhombus;perimeter=rhombusPerimeter;whiteSpace=wrap;html=1;align=center;" vertex="1" parent="1">
          <mxGeometry x="390" y="150" width="120" height="60" as="geometry" />
        </mxCell>
        <mxCell id="wImbaT4fMVseAlvRaWkG-65" value="" style="shape=link;html=1;rounded=0;exitX=1;exitY=0.75;exitDx=0;exitDy=0;entryX=0;entryY=0.5;entryDx=0;entryDy=0;" edge="1" parent="1" source="wImbaT4fMVseAlvRaWkG-1" target="wImbaT4fMVseAlvRaWkG-64">
          <mxGeometry relative="1" as="geometry">
            <mxPoint x="550" y="250" as="sourcePoint" />
            <mxPoint x="710" y="250" as="targetPoint" />
          </mxGeometry>
        </mxCell>
        <mxCell id="wImbaT4fMVseAlvRaWkG-66" value="1" style="resizable=0;html=1;whiteSpace=wrap;align=right;verticalAlign=bottom;" connectable="0" vertex="1" parent="wImbaT4fMVseAlvRaWkG-65">
          <mxGeometry x="1" relative="1" as="geometry">
            <mxPoint x="10" y="-20" as="offset" />
          </mxGeometry>
        </mxCell>
        <mxCell id="wImbaT4fMVseAlvRaWkG-67" value="" style="shape=link;html=1;rounded=0;entryX=1;entryY=0.5;entryDx=0;entryDy=0;exitX=0;exitY=1;exitDx=0;exitDy=0;" edge="1" parent="1" source="wImbaT4fMVseAlvRaWkG-59" target="wImbaT4fMVseAlvRaWkG-64">
          <mxGeometry relative="1" as="geometry">
            <mxPoint x="550" y="250" as="sourcePoint" />
            <mxPoint x="710" y="250" as="targetPoint" />
          </mxGeometry>
        </mxCell>
        <mxCell id="wImbaT4fMVseAlvRaWkG-68" value="N" style="resizable=0;html=1;whiteSpace=wrap;align=right;verticalAlign=bottom;" connectable="0" vertex="1" parent="wImbaT4fMVseAlvRaWkG-67">
          <mxGeometry x="1" relative="1" as="geometry">
            <mxPoint y="-10" as="offset" />
          </mxGeometry>
        </mxCell>
        <mxCell id="wImbaT4fMVseAlvRaWkG-69" value="" style="endArrow=none;html=1;rounded=0;exitX=0.5;exitY=1;exitDx=0;exitDy=0;entryX=0;entryY=0.25;entryDx=0;entryDy=0;" edge="1" parent="1" source="wImbaT4fMVseAlvRaWkG-60" target="wImbaT4fMVseAlvRaWkG-59">
          <mxGeometry relative="1" as="geometry">
            <mxPoint x="550" y="250" as="sourcePoint" />
            <mxPoint x="710" y="250" as="targetPoint" />
          </mxGeometry>
        </mxCell>
        <mxCell id="wImbaT4fMVseAlvRaWkG-70" value="" style="endArrow=none;html=1;rounded=0;exitX=0.5;exitY=1;exitDx=0;exitDy=0;entryX=0.25;entryY=0;entryDx=0;entryDy=0;" edge="1" parent="1" source="wImbaT4fMVseAlvRaWkG-61" target="wImbaT4fMVseAlvRaWkG-59">
          <mxGeometry relative="1" as="geometry">
            <mxPoint x="510" y="90" as="sourcePoint" />
            <mxPoint x="560" y="120" as="targetPoint" />
          </mxGeometry>
        </mxCell>
        <mxCell id="wImbaT4fMVseAlvRaWkG-71" value="" style="endArrow=none;html=1;rounded=0;exitX=0.38;exitY=1.044;exitDx=0;exitDy=0;entryX=1;entryY=0.25;entryDx=0;entryDy=0;exitPerimeter=0;" edge="1" parent="1" source="wImbaT4fMVseAlvRaWkG-62" target="wImbaT4fMVseAlvRaWkG-59">
          <mxGeometry relative="1" as="geometry">
            <mxPoint x="520" y="100" as="sourcePoint" />
            <mxPoint x="570" y="130" as="targetPoint" />
          </mxGeometry>
        </mxCell>
        <mxCell id="wImbaT4fMVseAlvRaWkG-73" value="Has" style="shape=rhombus;double=1;perimeter=rhombusPerimeter;whiteSpace=wrap;html=1;align=center;" vertex="1" parent="1">
          <mxGeometry x="760" y="140" width="120" height="60" as="geometry" />
        </mxCell>
        <mxCell id="wImbaT4fMVseAlvRaWkG-74" value="Crew" style="shape=ext;margin=3;double=1;whiteSpace=wrap;html=1;align=center;" vertex="1" parent="1">
          <mxGeometry x="950" y="170" width="100" height="40" as="geometry" />
        </mxCell>
        <mxCell id="wImbaT4fMVseAlvRaWkG-75" value="" style="shape=link;html=1;rounded=0;exitX=1;exitY=0.75;exitDx=0;exitDy=0;entryX=0;entryY=0.5;entryDx=0;entryDy=0;" edge="1" parent="1" source="wImbaT4fMVseAlvRaWkG-59" target="wImbaT4fMVseAlvRaWkG-73">
          <mxGeometry relative="1" as="geometry">
            <mxPoint x="680" y="70" as="sourcePoint" />
            <mxPoint x="840" y="70" as="targetPoint" />
          </mxGeometry>
        </mxCell>
        <mxCell id="wImbaT4fMVseAlvRaWkG-76" value="1" style="resizable=0;html=1;whiteSpace=wrap;align=right;verticalAlign=bottom;" connectable="0" vertex="1" parent="wImbaT4fMVseAlvRaWkG-75">
          <mxGeometry x="1" relative="1" as="geometry" />
        </mxCell>
        <mxCell id="wImbaT4fMVseAlvRaWkG-77" value="" style="endArrow=none;html=1;rounded=0;exitX=0;exitY=0.5;exitDx=0;exitDy=0;entryX=1;entryY=0.5;entryDx=0;entryDy=0;" edge="1" parent="1" source="wImbaT4fMVseAlvRaWkG-74" target="wImbaT4fMVseAlvRaWkG-73">
          <mxGeometry relative="1" as="geometry">
            <mxPoint x="680" y="70" as="sourcePoint" />
            <mxPoint x="820" y="210" as="targetPoint" />
          </mxGeometry>
        </mxCell>
        <mxCell id="wImbaT4fMVseAlvRaWkG-78" value="1" style="resizable=0;html=1;whiteSpace=wrap;align=right;verticalAlign=bottom;" connectable="0" vertex="1" parent="wImbaT4fMVseAlvRaWkG-77">
          <mxGeometry x="1" relative="1" as="geometry" />
        </mxCell>
        <mxCell id="wImbaT4fMVseAlvRaWkG-79" value="A Pailot" style="ellipse;whiteSpace=wrap;html=1;align=center;" vertex="1" parent="1">
          <mxGeometry x="870" y="80" width="100" height="40" as="geometry" />
        </mxCell>
        <mxCell id="wImbaT4fMVseAlvRaWkG-81" value="m Pailot" style="ellipse;whiteSpace=wrap;html=1;align=center;" vertex="1" parent="1">
          <mxGeometry x="990" y="100" width="100" height="40" as="geometry" />
        </mxCell>
        <mxCell id="wImbaT4fMVseAlvRaWkG-83" value="Hostesses" style="ellipse;shape=doubleEllipse;margin=3;whiteSpace=wrap;html=1;align=center;" vertex="1" parent="1">
          <mxGeometry x="990" y="250" width="100" height="40" as="geometry" />
        </mxCell>
        <mxCell id="wImbaT4fMVseAlvRaWkG-84" value="" style="endArrow=none;html=1;rounded=0;entryX=0.5;entryY=1;entryDx=0;entryDy=0;exitX=0;exitY=0.25;exitDx=0;exitDy=0;" edge="1" parent="1" source="wImbaT4fMVseAlvRaWkG-74" target="wImbaT4fMVseAlvRaWkG-79">
          <mxGeometry relative="1" as="geometry">
            <mxPoint x="680" y="70" as="sourcePoint" />
            <mxPoint x="840" y="70" as="targetPoint" />
          </mxGeometry>
        </mxCell>
        <mxCell id="wImbaT4fMVseAlvRaWkG-85" value="" style="endArrow=none;html=1;rounded=0;entryX=0;entryY=1;entryDx=0;entryDy=0;exitX=0.5;exitY=0;exitDx=0;exitDy=0;" edge="1" parent="1" source="wImbaT4fMVseAlvRaWkG-74" target="wImbaT4fMVseAlvRaWkG-81">
          <mxGeometry relative="1" as="geometry">
            <mxPoint x="960" y="190" as="sourcePoint" />
            <mxPoint x="930" y="130" as="targetPoint" />
          </mxGeometry>
        </mxCell>
        <mxCell id="wImbaT4fMVseAlvRaWkG-86" value="" style="endArrow=none;html=1;rounded=0;entryX=0.75;entryY=1;entryDx=0;entryDy=0;exitX=0.35;exitY=0;exitDx=0;exitDy=0;exitPerimeter=0;" edge="1" parent="1" source="wImbaT4fMVseAlvRaWkG-83" target="wImbaT4fMVseAlvRaWkG-74">
          <mxGeometry relative="1" as="geometry">
            <mxPoint x="1010" y="180" as="sourcePoint" />
            <mxPoint x="1015" y="144" as="targetPoint" />
          </mxGeometry>
        </mxCell>
        <mxCell id="wImbaT4fMVseAlvRaWkG-90" value="Assign" style="shape=rhombus;perimeter=rhombusPerimeter;whiteSpace=wrap;html=1;align=center;" vertex="1" parent="1">
          <mxGeometry x="620" y="355" width="120" height="60" as="geometry" />
        </mxCell>
        <mxCell id="wImbaT4fMVseAlvRaWkG-91" value="" style="endArrow=none;html=1;rounded=0;entryX=0.5;entryY=0;entryDx=0;entryDy=0;exitX=0.5;exitY=1;exitDx=0;exitDy=0;" edge="1" parent="1" source="wImbaT4fMVseAlvRaWkG-59" target="wImbaT4fMVseAlvRaWkG-90">
          <mxGeometry relative="1" as="geometry">
            <mxPoint x="520" y="380" as="sourcePoint" />
            <mxPoint x="680" y="380" as="targetPoint" />
          </mxGeometry>
        </mxCell>
        <mxCell id="wImbaT4fMVseAlvRaWkG-92" value="N" style="resizable=0;html=1;whiteSpace=wrap;align=right;verticalAlign=bottom;" connectable="0" vertex="1" parent="wImbaT4fMVseAlvRaWkG-91">
          <mxGeometry x="1" relative="1" as="geometry">
            <mxPoint x="-10" as="offset" />
          </mxGeometry>
        </mxCell>
        <mxCell id="wImbaT4fMVseAlvRaWkG-93" value="Route" style="whiteSpace=wrap;html=1;align=center;" vertex="1" parent="1">
          <mxGeometry x="730" y="530" width="100" height="40" as="geometry" />
        </mxCell>
        <mxCell id="wImbaT4fMVseAlvRaWkG-97" value="" style="endArrow=none;html=1;rounded=0;entryX=0.5;entryY=1;entryDx=0;entryDy=0;exitX=0.25;exitY=0;exitDx=0;exitDy=0;" edge="1" parent="1" source="wImbaT4fMVseAlvRaWkG-93" target="wImbaT4fMVseAlvRaWkG-90">
          <mxGeometry relative="1" as="geometry">
            <mxPoint x="590" y="460" as="sourcePoint" />
            <mxPoint x="750" y="460" as="targetPoint" />
          </mxGeometry>
        </mxCell>
        <mxCell id="wImbaT4fMVseAlvRaWkG-98" value="N" style="resizable=0;html=1;whiteSpace=wrap;align=right;verticalAlign=bottom;" connectable="0" vertex="1" parent="wImbaT4fMVseAlvRaWkG-97">
          <mxGeometry x="1" relative="1" as="geometry">
            <mxPoint x="-10" y="14" as="offset" />
          </mxGeometry>
        </mxCell>
        <mxCell id="wImbaT4fMVseAlvRaWkG-100" value="Origin" style="ellipse;whiteSpace=wrap;html=1;align=center;" vertex="1" parent="1">
          <mxGeometry x="630" y="605" width="80" height="30" as="geometry" />
        </mxCell>
        <mxCell id="wImbaT4fMVseAlvRaWkG-101" value="Destination" style="ellipse;whiteSpace=wrap;html=1;align=center;" vertex="1" parent="1">
          <mxGeometry x="710" y="617.5" width="80" height="25" as="geometry" />
        </mxCell>
        <mxCell id="wImbaT4fMVseAlvRaWkG-102" value="Classification" style="ellipse;whiteSpace=wrap;html=1;align=center;" vertex="1" parent="1">
          <mxGeometry x="862.5" y="560" width="80" height="35" as="geometry" />
        </mxCell>
        <mxCell id="wImbaT4fMVseAlvRaWkG-103" value="Domestic" style="ellipse;whiteSpace=wrap;html=1;align=center;" vertex="1" parent="1">
          <mxGeometry x="970" y="565" width="100" height="40" as="geometry" />
        </mxCell>
        <mxCell id="wImbaT4fMVseAlvRaWkG-104" value="&lt;font style=&quot;font-size: 10px;&quot;&gt;international_Rote&amp;nbsp;&lt;/font&gt;" style="ellipse;whiteSpace=wrap;html=1;align=center;" vertex="1" parent="1">
          <mxGeometry x="930" y="610" width="100" height="50" as="geometry" />
        </mxCell>
        <mxCell id="wImbaT4fMVseAlvRaWkG-105" value="Distance" style="ellipse;whiteSpace=wrap;html=1;align=center;" vertex="1" parent="1">
          <mxGeometry x="785" y="605" width="70" height="30" as="geometry" />
        </mxCell>
        <mxCell id="wImbaT4fMVseAlvRaWkG-107" value="ID" style="ellipse;whiteSpace=wrap;html=1;align=center;fontStyle=4;" vertex="1" parent="1">
          <mxGeometry x="600" y="570" width="70" height="30" as="geometry" />
        </mxCell>
        <mxCell id="wImbaT4fMVseAlvRaWkG-108" value="" style="endArrow=none;html=1;rounded=0;exitX=0;exitY=0.5;exitDx=0;exitDy=0;" edge="1" parent="1" source="wImbaT4fMVseAlvRaWkG-93" target="wImbaT4fMVseAlvRaWkG-107">
          <mxGeometry relative="1" as="geometry">
            <mxPoint x="700" y="590" as="sourcePoint" />
            <mxPoint x="860" y="590" as="targetPoint" />
          </mxGeometry>
        </mxCell>
        <mxCell id="wImbaT4fMVseAlvRaWkG-109" value="" style="endArrow=none;html=1;rounded=0;exitX=0;exitY=1;exitDx=0;exitDy=0;entryX=0.618;entryY=-0.018;entryDx=0;entryDy=0;entryPerimeter=0;" edge="1" parent="1" source="wImbaT4fMVseAlvRaWkG-93" target="wImbaT4fMVseAlvRaWkG-100">
          <mxGeometry relative="1" as="geometry">
            <mxPoint x="710" y="570" as="sourcePoint" />
            <mxPoint x="672" y="579" as="targetPoint" />
          </mxGeometry>
        </mxCell>
        <mxCell id="wImbaT4fMVseAlvRaWkG-110" value="" style="endArrow=none;html=1;rounded=0;exitX=0.25;exitY=1;exitDx=0;exitDy=0;entryX=0.5;entryY=0;entryDx=0;entryDy=0;" edge="1" parent="1" source="wImbaT4fMVseAlvRaWkG-93" target="wImbaT4fMVseAlvRaWkG-101">
          <mxGeometry relative="1" as="geometry">
            <mxPoint x="710" y="590" as="sourcePoint" />
            <mxPoint x="682" y="619" as="targetPoint" />
          </mxGeometry>
        </mxCell>
        <mxCell id="wImbaT4fMVseAlvRaWkG-111" value="" style="endArrow=none;html=1;rounded=0;entryX=0;entryY=0;entryDx=0;entryDy=0;" edge="1" parent="1" source="wImbaT4fMVseAlvRaWkG-93" target="wImbaT4fMVseAlvRaWkG-105">
          <mxGeometry relative="1" as="geometry">
            <mxPoint x="735" y="590" as="sourcePoint" />
            <mxPoint x="760" y="650" as="targetPoint" />
          </mxGeometry>
        </mxCell>
        <mxCell id="wImbaT4fMVseAlvRaWkG-112" value="" style="endArrow=none;html=1;rounded=0;entryX=0;entryY=0.5;entryDx=0;entryDy=0;exitX=1;exitY=1;exitDx=0;exitDy=0;" edge="1" parent="1" source="wImbaT4fMVseAlvRaWkG-93" target="wImbaT4fMVseAlvRaWkG-102">
          <mxGeometry relative="1" as="geometry">
            <mxPoint x="777" y="590" as="sourcePoint" />
            <mxPoint x="835" y="656" as="targetPoint" />
          </mxGeometry>
        </mxCell>
        <mxCell id="wImbaT4fMVseAlvRaWkG-113" value="" style="endArrow=none;html=1;rounded=0;exitX=0.102;exitY=0.179;exitDx=0;exitDy=0;exitPerimeter=0;" edge="1" parent="1" source="wImbaT4fMVseAlvRaWkG-104" target="wImbaT4fMVseAlvRaWkG-102">
          <mxGeometry relative="1" as="geometry">
            <mxPoint x="810" y="590" as="sourcePoint" />
            <mxPoint x="840" y="600" as="targetPoint" />
          </mxGeometry>
        </mxCell>
        <mxCell id="wImbaT4fMVseAlvRaWkG-114" value="" style="endArrow=none;html=1;rounded=0;entryX=0.984;entryY=0.656;entryDx=0;entryDy=0;exitX=0;exitY=0.5;exitDx=0;exitDy=0;entryPerimeter=0;" edge="1" parent="1" source="wImbaT4fMVseAlvRaWkG-103" target="wImbaT4fMVseAlvRaWkG-102">
          <mxGeometry relative="1" as="geometry">
            <mxPoint x="950" y="647" as="sourcePoint" />
            <mxPoint x="925" y="614" as="targetPoint" />
          </mxGeometry>
        </mxCell>
        <mxCell id="wImbaT4fMVseAlvRaWkG-118" value="Time" style="ellipse;whiteSpace=wrap;html=1;align=center;dashed=1;" vertex="1" parent="1">
          <mxGeometry x="760" y="440" width="100" height="40" as="geometry" />
        </mxCell>
        <mxCell id="wImbaT4fMVseAlvRaWkG-119" value="Arrival" style="ellipse;whiteSpace=wrap;html=1;align=center;" vertex="1" parent="1">
          <mxGeometry x="760" y="295" width="100" height="40" as="geometry" />
        </mxCell>
        <mxCell id="wImbaT4fMVseAlvRaWkG-120" value="Time" style="ellipse;whiteSpace=wrap;html=1;align=center;" vertex="1" parent="1">
          <mxGeometry x="870" y="300" width="65" height="30" as="geometry" />
        </mxCell>
        <mxCell id="wImbaT4fMVseAlvRaWkG-121" value="Date" style="ellipse;whiteSpace=wrap;html=1;align=center;" vertex="1" parent="1">
          <mxGeometry x="845" y="255" width="70" height="30" as="geometry" />
        </mxCell>
        <mxCell id="wImbaT4fMVseAlvRaWkG-122" value="" style="endArrow=none;html=1;rounded=0;exitX=1;exitY=0;exitDx=0;exitDy=0;entryX=0;entryY=0.5;entryDx=0;entryDy=0;" edge="1" parent="1" source="wImbaT4fMVseAlvRaWkG-90" target="wImbaT4fMVseAlvRaWkG-119">
          <mxGeometry relative="1" as="geometry">
            <mxPoint x="720" y="370" as="sourcePoint" />
            <mxPoint x="880" y="370" as="targetPoint" />
          </mxGeometry>
        </mxCell>
        <mxCell id="wImbaT4fMVseAlvRaWkG-124" value="" style="endArrow=none;html=1;rounded=0;exitX=1;exitY=1;exitDx=0;exitDy=0;" edge="1" parent="1" source="wImbaT4fMVseAlvRaWkG-90" target="wImbaT4fMVseAlvRaWkG-118">
          <mxGeometry relative="1" as="geometry">
            <mxPoint x="710" y="410" as="sourcePoint" />
            <mxPoint x="870" y="410" as="targetPoint" />
          </mxGeometry>
        </mxCell>
        <mxCell id="wImbaT4fMVseAlvRaWkG-126" value="" style="endArrow=none;html=1;rounded=0;entryX=0;entryY=0.5;entryDx=0;entryDy=0;exitX=0.5;exitY=0;exitDx=0;exitDy=0;" edge="1" parent="1" source="wImbaT4fMVseAlvRaWkG-119" target="wImbaT4fMVseAlvRaWkG-121">
          <mxGeometry relative="1" as="geometry">
            <mxPoint x="720" y="260" as="sourcePoint" />
            <mxPoint x="880" y="260" as="targetPoint" />
            <Array as="points" />
          </mxGeometry>
        </mxCell>
        <mxCell id="wImbaT4fMVseAlvRaWkG-127" value="" style="endArrow=none;html=1;rounded=0;entryX=0;entryY=0.5;entryDx=0;entryDy=0;exitX=1;exitY=0.5;exitDx=0;exitDy=0;" edge="1" parent="1" source="wImbaT4fMVseAlvRaWkG-119" target="wImbaT4fMVseAlvRaWkG-120">
          <mxGeometry relative="1" as="geometry">
            <mxPoint x="820" y="340" as="sourcePoint" />
            <mxPoint x="850" y="315" as="targetPoint" />
          </mxGeometry>
        </mxCell>
        <mxCell id="wImbaT4fMVseAlvRaWkG-129" value="Price per Passenger" style="ellipse;whiteSpace=wrap;html=1;align=center;" vertex="1" parent="1">
          <mxGeometry x="480" y="355" width="100" height="40" as="geometry" />
        </mxCell>
        <mxCell id="wImbaT4fMVseAlvRaWkG-130" value="Departue" style="ellipse;whiteSpace=wrap;html=1;align=center;" vertex="1" parent="1">
          <mxGeometry x="755" y="370" width="100" height="40" as="geometry" />
        </mxCell>
        <mxCell id="wImbaT4fMVseAlvRaWkG-131" value="Num of Passengers" style="ellipse;whiteSpace=wrap;html=1;align=center;" vertex="1" parent="1">
          <mxGeometry x="490" y="425" width="100" height="40" as="geometry" />
        </mxCell>
        <mxCell id="wImbaT4fMVseAlvRaWkG-132" value="" style="endArrow=none;html=1;rounded=0;exitX=1;exitY=0.5;exitDx=0;exitDy=0;entryX=0;entryY=0.5;entryDx=0;entryDy=0;" edge="1" parent="1" source="wImbaT4fMVseAlvRaWkG-90" target="wImbaT4fMVseAlvRaWkG-130">
          <mxGeometry relative="1" as="geometry">
            <mxPoint x="780" y="450" as="sourcePoint" />
            <mxPoint x="940" y="450" as="targetPoint" />
          </mxGeometry>
        </mxCell>
        <mxCell id="wImbaT4fMVseAlvRaWkG-133" value="Date" style="ellipse;whiteSpace=wrap;html=1;align=center;" vertex="1" parent="1">
          <mxGeometry x="900" y="360" width="70" height="30" as="geometry" />
        </mxCell>
        <mxCell id="wImbaT4fMVseAlvRaWkG-134" value="Time" style="ellipse;whiteSpace=wrap;html=1;align=center;" vertex="1" parent="1">
          <mxGeometry x="910" y="395" width="65" height="30" as="geometry" />
        </mxCell>
        <mxCell id="wImbaT4fMVseAlvRaWkG-135" value="" style="endArrow=none;html=1;rounded=0;entryX=0;entryY=0.5;entryDx=0;entryDy=0;exitX=1;exitY=0;exitDx=0;exitDy=0;" edge="1" parent="1" source="wImbaT4fMVseAlvRaWkG-130" target="wImbaT4fMVseAlvRaWkG-133">
          <mxGeometry relative="1" as="geometry">
            <mxPoint x="800" y="310" as="sourcePoint" />
            <mxPoint x="855" y="280" as="targetPoint" />
            <Array as="points" />
          </mxGeometry>
        </mxCell>
        <mxCell id="wImbaT4fMVseAlvRaWkG-136" value="" style="endArrow=none;html=1;rounded=0;entryX=0;entryY=0.5;entryDx=0;entryDy=0;" edge="1" parent="1" source="wImbaT4fMVseAlvRaWkG-130" target="wImbaT4fMVseAlvRaWkG-134">
          <mxGeometry relative="1" as="geometry">
            <mxPoint x="875" y="391" as="sourcePoint" />
            <mxPoint x="910" y="385" as="targetPoint" />
            <Array as="points" />
          </mxGeometry>
        </mxCell>
        <mxCell id="wImbaT4fMVseAlvRaWkG-137" value="" style="endArrow=none;html=1;rounded=0;entryX=0;entryY=0.5;entryDx=0;entryDy=0;exitX=0.924;exitY=0.803;exitDx=0;exitDy=0;exitPerimeter=0;" edge="1" parent="1" source="wImbaT4fMVseAlvRaWkG-129" target="wImbaT4fMVseAlvRaWkG-90">
          <mxGeometry relative="1" as="geometry">
            <mxPoint x="510" y="440" as="sourcePoint" />
            <mxPoint x="670" y="440" as="targetPoint" />
          </mxGeometry>
        </mxCell>
        <mxCell id="wImbaT4fMVseAlvRaWkG-138" value="" style="endArrow=none;html=1;rounded=0;entryX=0.055;entryY=0.601;entryDx=0;entryDy=0;exitX=1;exitY=0;exitDx=0;exitDy=0;entryPerimeter=0;" edge="1" parent="1" source="wImbaT4fMVseAlvRaWkG-131" target="wImbaT4fMVseAlvRaWkG-90">
          <mxGeometry relative="1" as="geometry">
            <mxPoint x="582" y="397" as="sourcePoint" />
            <mxPoint x="630" y="405" as="targetPoint" />
          </mxGeometry>
        </mxCell>
      </root>
    </mxGraphModel>
  </diagram>
</mxfile>
